<svg version="1.1" xmlns="http://www.w3.org/2000/svg" style="display: block;" viewBox="0 0 2048 2048" width="1024" height="1024" preserveAspectRatio="none">
<path transform="translate(0,0)" fill="rgb(0,0,0)" d="M 0 0 L 2048 0 L 2048 2048 L 0 2048 L 0 0 z"/>
<path transform="translate(0,0)" fill="rgb(253,99,92)" d="M 899.934 682.313 C 928.132 683.547 963.548 682.601 992.212 682.596 L 1151.65 682.463 C 1165.28 717.806 1183.91 759.617 1198.86 794.917 L 1263.52 948.602 L 1375.05 1215.42 C 1395.36 1263.7 1419.68 1317.24 1438.32 1365.6 C 1427.62 1364.85 1413.02 1365.38 1401.96 1365.49 C 1337.36 1365.48 1269.57 1364.49 1205.21 1365.8 C 1203.27 1291.4 1165.67 1230.57 1120.39 1174.79 C 1081.59 1127 1055.93 1059.29 1065.07 997.225 C 1037.93 996.665 1000.32 984.312 976.563 971.749 C 927.077 945.049 890.332 899.657 874.523 845.696 C 862.651 805.974 863.588 761.076 879.432 722.626 C 884.867 709.435 893.038 694.984 899.934 682.313 z"/>
<path transform="translate(0,0)" fill="rgb(253,99,92)" d="M 780.311 966.877 C 785.142 966.904 789.858 966.712 794.274 968.899 C 832.249 987.708 759.781 1004.01 808.111 1026.07 C 788.837 1041.11 794.343 1053.97 815.744 1061.29 C 810.506 1069.05 803.285 1079.24 804.511 1088.87 C 810.396 1135.08 862.215 1110.89 886.9 1109.44 C 950.642 1105.69 980.625 1168.36 956.731 1222.77 C 933.6 1275.44 885.625 1297.62 855.4 1344.11 C 851.576 1350.01 848.268 1360.64 843.905 1365.53 L 841.25 1365.66 C 764.516 1365.31 687.782 1365.35 611.049 1365.78 C 614.751 1354.23 622.825 1337.43 627.838 1325.4 C 641.03 1293.64 654.442 1261.98 668.074 1230.41 L 780.311 966.877 z"/>
<path transform="translate(0,0)" fill="rgb(253,253,253)" d="M 204.744 1988.67 C 208.34 1988.54 217.092 1988.04 220.275 1989.51 C 237.95 1997.68 232.137 2012.85 216.582 2018.77 C 212.124 2019.47 206.906 2021.55 204.916 2016.92 C 205.856 2012.24 210.79 2005.68 213.584 2001.38 L 199.662 2000.98 C 201.139 1996.23 202.672 1993.14 204.744 1988.67 z"/>
<path transform="translate(0,0)" fill="rgb(253,253,253)" d="M 182.166 1988.6 L 196.291 1988.69 C 194.386 1994.44 191.468 2001.41 189.231 2007.16 L 202.156 2007.64 L 193.882 2026.64 L 193.235 2027.25 L 192.071 2027.12 C 191.895 2024.09 192.047 2023.37 190.93 2020.53 C 186.942 2019.53 174.624 2019.91 169.819 2019.94 C 172.16 2011.74 178.726 1996.97 182.166 1988.6 z"/>
<path transform="translate(0,0)" fill="rgb(253,253,253)" d="M 269.604 2005.88 C 272.106 2005.96 280.296 2005.61 281.549 2007.81 C 285.138 2014.1 282.967 2022.73 276.555 2026.51 C 272.654 2027.15 271.892 2026.53 268.267 2025.07 L 268.216 2022.91 C 271.159 2020.17 271.145 2023.72 276.828 2022.56 L 277.333 2020.42 C 271.529 2019.12 268.974 2019.54 266.84 2013.87 C 267.187 2009.79 267.506 2009.54 269.604 2005.88 z"/>
<path transform="translate(0,0)" fill="rgb(253,253,253)" d="M 306.931 2002.19 C 319.368 2002.31 326.201 2004.56 320.35 2018.17 C 315.446 2019.81 311.82 2021.54 307.749 2018.1 C 305.949 2013.46 306.738 2007.39 306.931 2002.19 z"/>
<path transform="translate(0,0)" fill="rgb(0,0,0)" d="M 311.203 2005.27 C 314.487 2005.99 314.845 2005.79 317.386 2008.07 C 318.664 2011.24 317.955 2012.89 317.29 2016.27 C 314.551 2016.36 314.236 2016.65 311.852 2015.48 C 310.088 2012.87 310.947 2008.67 311.203 2005.27 z"/>
<path transform="translate(0,0)" fill="rgb(253,253,253)" d="M 336.493 1999.43 C 342.104 2002.02 337.034 2002.4 339.028 2005.89 L 340.957 2005.7 L 344.501 2001.07 C 347.462 2000.1 346.234 1999.85 348.437 2000.95 C 347.472 2005.66 347.18 2003.56 348.5 2007.56 C 344.1 2014.02 348.634 2014.96 344.527 2021.18 C 339.96 2014.68 345.068 2011.08 339.087 2008.57 C 337.077 2010.95 337.37 2015.4 336.252 2019.78 L 334.703 2020.02 C 329.642 2014.54 331.907 2004.8 336.493 1999.43 z"/>
<path transform="translate(0,0)" fill="rgb(184,184,188)" d="M 55.8409 2005.97 C 61.9142 2006.12 62.77 2005.43 66.6721 2010.18 C 67.5985 2014.02 67.3802 2014.34 66.5383 2018.32 L 64.8161 2019.16 C 60.4696 2020.06 59.8208 2020.5 55.8505 2019.05 C 50.8496 2014.29 52.1666 2011.25 55.8409 2005.97 z"/>
<path transform="translate(0,0)" fill="rgb(0,0,0)" d="M 56.734 2008.76 C 59.1076 2007.21 62.2874 2007.86 63.8507 2010.23 C 65.414 2012.59 64.7737 2015.78 62.4176 2017.35 C 60.0429 2018.94 56.8285 2018.3 55.2528 2015.91 C 53.6771 2013.53 54.3416 2010.32 56.734 2008.76 z"/>
<path transform="translate(0,0)" fill="rgb(253,253,253)" d="M 392.604 2006.53 C 394.963 2005.24 397.838 2005.36 400.082 2006.84 C 402.326 2008.31 403.576 2010.91 403.332 2013.58 C 403.088 2016.26 401.391 2018.58 398.917 2019.62 C 395.344 2021.13 391.214 2019.57 389.53 2016.08 C 387.845 2012.59 389.198 2008.38 392.604 2006.53 z"/>
<path transform="translate(0,0)" fill="rgb(253,253,253)" d="M 288.043 2006.61 C 291.48 2004.65 295.853 2005.8 297.884 2009.19 C 299.916 2012.59 298.861 2016.98 295.51 2019.09 C 293.279 2020.49 290.463 2020.57 288.152 2019.31 C 285.84 2018.04 284.394 2015.63 284.372 2012.99 C 284.349 2010.36 285.754 2007.91 288.043 2006.61 z"/>
<path transform="translate(0,0)" fill="rgb(253,253,253)" d="M 254.823 2006.46 C 257.194 2005.25 260.041 2005.43 262.236 2006.94 C 264.431 2008.45 265.62 2011.04 265.333 2013.69 C 265.045 2016.34 263.326 2018.62 260.858 2019.62 C 257.264 2021.08 253.157 2019.46 251.54 2015.93 C 249.924 2012.4 251.37 2008.23 254.823 2006.46 z"/>
<path transform="translate(0,0)" fill="rgb(253,253,253)" d="M 405.801 2005.58 C 409.86 2006.07 414.776 2005.36 418.08 2008.26 C 421.65 2011.38 421.712 2016.68 417.478 2019.41 L 415.961 2018.55 L 416.121 2015.65 C 415.187 2011.31 415.968 2012 413.395 2009.06 C 410.602 2010.48 409.735 2016.06 407.416 2019.96 C 405.293 2017.19 405.843 2009.48 405.801 2005.58 z"/>
<path transform="translate(0,0)" fill="rgb(253,253,253)" d="M 351.133 2005.18 L 353.3 2005.85 C 355.795 2008.46 354.307 2010.79 356.197 2016 L 358.105 2016.47 C 361.579 2011.36 359.915 2009.11 362.429 2005.91 L 364.056 2006.09 L 364.767 2008.03 C 364.992 2011.77 365.731 2014.83 363.812 2017.84 C 361.07 2020.05 361.285 2020.23 357.857 2020.56 C 349.414 2017.94 350.61 2012.25 351.133 2005.18 z"/>
<path transform="translate(0,0)" fill="rgb(253,253,253)" d="M 369.181 2005.77 C 374.122 2005.85 375.208 2005.5 379.109 2008.56 L 378.838 2009.08 C 376.198 2009.4 375.139 2009.42 372.588 2010.24 C 375.405 2011.79 377.019 2012.43 379.217 2014.83 C 378.767 2018.46 378.748 2017.47 375.968 2020.79 C 372.323 2019.95 369.884 2019.7 367.386 2016.95 L 367.878 2015.56 C 370.546 2015.95 371.835 2016.19 374.559 2016.23 C 372.682 2013.19 372.929 2014.08 368.676 2012.51 C 367.466 2009.14 367.937 2010.01 369.181 2005.77 z"/>
<path transform="translate(0,0)" fill="rgb(253,253,253)" d="M 240.011 2001.35 C 248.733 2005.63 240.888 2008.52 244.7 2016.11 C 247.372 2016.88 248.056 2017.09 250.246 2018.78 C 245.476 2020.07 243.659 2021.48 240.07 2017.85 C 238.496 2013.33 239.617 2006.41 240.011 2001.35 z"/>
<path transform="translate(0,0)" fill="rgb(184,184,188)" d="M 146.079 2001.56 C 147.876 2002.95 147.838 2003.95 148.886 2006.35 C 153.275 2006.35 153.603 2005.08 156.983 2007.55 C 159.021 2011.79 158.618 2014.65 157.163 2018.96 C 156 2017.73 156.021 2013.12 155.828 2010.95 C 155.627 2009.72 155.849 2010.23 154.984 2009.11 C 153.884 2007.68 152.503 2008.07 150.79 2007.87 C 148.322 2010.13 147.627 2014.84 146.495 2018.58 C 145.954 2012.83 146.076 2007.33 146.079 2001.56 z"/>
<path transform="translate(0,0)" fill="rgb(184,184,188)" d="M 32.1108 2002.4 L 33.9817 2003.56 C 36.1999 2007.35 40.647 2014.96 40.8675 2019.19 L 39.5058 2018.71 L 38.2733 2015.66 C 37.4008 2013.25 37.2782 2012.25 35.5629 2010.36 C 33.5839 2012.01 33.571 2014.15 32.9819 2016.86 L 32.7029 2018.17 C 31.9149 2012.54 32.0816 2008.04 32.1108 2002.4 z"/>
<path transform="translate(0,0)" fill="rgb(253,253,253)" d="M 325.064 2005.22 L 328.075 2006.03 C 331.161 2010.09 329.906 2014.35 329.454 2019.81 C 327.007 2019.97 327.837 2020.13 325.693 2019.06 C 324.111 2014.92 324.848 2009.81 325.064 2005.22 z"/>
<path transform="translate(0,0)" fill="rgb(253,253,253)" d="M 382.497 2005.24 C 385.065 2006.01 383.897 2005.4 385.995 2007.1 C 387.377 2011.62 386.492 2015.95 386.044 2020.77 C 383.776 2019.94 384.497 2020.37 382.744 2018.81 C 381.442 2014.37 382.178 2009.95 382.497 2005.24 z"/>
<path transform="translate(0,0)" fill="rgb(184,184,188)" d="M 132.004 2005.5 C 134.493 2009.59 133.305 2016.38 132.524 2020.92 C 129.983 2016.1 130.737 2010.62 132.004 2005.5 z"/>
</svg>